<mxfile host="app.diagrams.net" agent="Mozilla/5.0 (Windows NT 10.0; Win64; x64; rv:132.0) Gecko/20100101 Firefox/132.0" version="24.8.3">
  <diagram name="Page-1" id="STkjrwD_avPpWb7RI1I3">
    <mxGraphModel dx="1221" dy="692" grid="1" gridSize="10" guides="1" tooltips="1" connect="1" arrows="0" fold="1" page="1" pageScale="1" pageWidth="827" pageHeight="1169" math="0" shadow="0">
      <root>
        <mxCell id="0" />
        <mxCell id="1" parent="0" />
        <mxCell id="a0Pq5C3tPMiAY6oz2Tuq-1" value="User" style="swimlane;fontStyle=0;childLayout=stackLayout;horizontal=1;startSize=26;fillColor=none;horizontalStack=0;resizeParent=1;resizeParentMax=0;resizeLast=0;collapsible=1;marginBottom=0;whiteSpace=wrap;html=1;" vertex="1" parent="1">
          <mxGeometry x="70" y="50" width="140" height="150" as="geometry" />
        </mxCell>
        <mxCell id="a0Pq5C3tPMiAY6oz2Tuq-2" value="&lt;div&gt;first_name : string&lt;/div&gt;&lt;div&gt;&lt;div&gt;name :string&lt;/div&gt;&lt;div&gt;&lt;div&gt;email : string&lt;/div&gt;&lt;div&gt;password : string&lt;/div&gt;&lt;div&gt;role : string&lt;/div&gt;&lt;div&gt;enabled : boolean&lt;/div&gt;&lt;div&gt;contract: string&lt;/div&gt;&lt;div&gt;entry_date : date&lt;br&gt;&lt;/div&gt;&lt;/div&gt;&lt;/div&gt;" style="text;strokeColor=none;fillColor=none;align=left;verticalAlign=top;spacingLeft=4;spacingRight=4;overflow=hidden;rotatable=0;points=[[0,0.5],[1,0.5]];portConstraint=eastwest;whiteSpace=wrap;html=1;" vertex="1" parent="a0Pq5C3tPMiAY6oz2Tuq-1">
          <mxGeometry y="26" width="140" height="124" as="geometry" />
        </mxCell>
        <mxCell id="a0Pq5C3tPMiAY6oz2Tuq-5" value="Project" style="swimlane;fontStyle=0;childLayout=stackLayout;horizontal=1;startSize=26;fillColor=none;horizontalStack=0;resizeParent=1;resizeParentMax=0;resizeLast=0;collapsible=1;marginBottom=0;whiteSpace=wrap;html=1;" vertex="1" parent="1">
          <mxGeometry x="70" y="246" width="140" height="140" as="geometry" />
        </mxCell>
        <mxCell id="a0Pq5C3tPMiAY6oz2Tuq-6" value="name : string" style="text;strokeColor=none;fillColor=none;align=left;verticalAlign=top;spacingLeft=4;spacingRight=4;overflow=hidden;rotatable=0;points=[[0,0.5],[1,0.5]];portConstraint=eastwest;whiteSpace=wrap;html=1;" vertex="1" parent="a0Pq5C3tPMiAY6oz2Tuq-5">
          <mxGeometry y="26" width="140" height="26" as="geometry" />
        </mxCell>
        <mxCell id="a0Pq5C3tPMiAY6oz2Tuq-7" value="start_date : date" style="text;strokeColor=none;fillColor=none;align=left;verticalAlign=top;spacingLeft=4;spacingRight=4;overflow=hidden;rotatable=0;points=[[0,0.5],[1,0.5]];portConstraint=eastwest;whiteSpace=wrap;html=1;" vertex="1" parent="a0Pq5C3tPMiAY6oz2Tuq-5">
          <mxGeometry y="52" width="140" height="26" as="geometry" />
        </mxCell>
        <mxCell id="a0Pq5C3tPMiAY6oz2Tuq-9" value="deadline : date" style="text;strokeColor=none;fillColor=none;align=left;verticalAlign=top;spacingLeft=4;spacingRight=4;overflow=hidden;rotatable=0;points=[[0,0.5],[1,0.5]];portConstraint=eastwest;whiteSpace=wrap;html=1;" vertex="1" parent="a0Pq5C3tPMiAY6oz2Tuq-5">
          <mxGeometry y="78" width="140" height="32" as="geometry" />
        </mxCell>
        <mxCell id="a0Pq5C3tPMiAY6oz2Tuq-8" value="archived : boolean" style="text;strokeColor=none;fillColor=none;align=left;verticalAlign=top;spacingLeft=4;spacingRight=4;overflow=hidden;rotatable=0;points=[[0,0.5],[1,0.5]];portConstraint=eastwest;whiteSpace=wrap;html=1;" vertex="1" parent="a0Pq5C3tPMiAY6oz2Tuq-5">
          <mxGeometry y="110" width="140" height="30" as="geometry" />
        </mxCell>
        <mxCell id="a0Pq5C3tPMiAY6oz2Tuq-11" value="Task" style="swimlane;fontStyle=0;childLayout=stackLayout;horizontal=1;startSize=26;fillColor=none;horizontalStack=0;resizeParent=1;resizeParentMax=0;resizeLast=0;collapsible=1;marginBottom=0;whiteSpace=wrap;html=1;" vertex="1" parent="1">
          <mxGeometry x="430" y="250" width="140" height="104" as="geometry" />
        </mxCell>
        <mxCell id="a0Pq5C3tPMiAY6oz2Tuq-12" value="title : string" style="text;strokeColor=none;fillColor=none;align=left;verticalAlign=top;spacingLeft=4;spacingRight=4;overflow=hidden;rotatable=0;points=[[0,0.5],[1,0.5]];portConstraint=eastwest;whiteSpace=wrap;html=1;" vertex="1" parent="a0Pq5C3tPMiAY6oz2Tuq-11">
          <mxGeometry y="26" width="140" height="26" as="geometry" />
        </mxCell>
        <mxCell id="a0Pq5C3tPMiAY6oz2Tuq-13" value="description : string" style="text;strokeColor=none;fillColor=none;align=left;verticalAlign=top;spacingLeft=4;spacingRight=4;overflow=hidden;rotatable=0;points=[[0,0.5],[1,0.5]];portConstraint=eastwest;whiteSpace=wrap;html=1;" vertex="1" parent="a0Pq5C3tPMiAY6oz2Tuq-11">
          <mxGeometry y="52" width="140" height="26" as="geometry" />
        </mxCell>
        <mxCell id="a0Pq5C3tPMiAY6oz2Tuq-14" value="deadline : date" style="text;strokeColor=none;fillColor=none;align=left;verticalAlign=top;spacingLeft=4;spacingRight=4;overflow=hidden;rotatable=0;points=[[0,0.5],[1,0.5]];portConstraint=eastwest;whiteSpace=wrap;html=1;" vertex="1" parent="a0Pq5C3tPMiAY6oz2Tuq-11">
          <mxGeometry y="78" width="140" height="26" as="geometry" />
        </mxCell>
        <mxCell id="a0Pq5C3tPMiAY6oz2Tuq-71" style="edgeStyle=orthogonalEdgeStyle;rounded=0;orthogonalLoop=1;jettySize=auto;html=1;exitX=0.5;exitY=0;exitDx=0;exitDy=0;endArrow=none;endFill=0;entryX=0.296;entryY=1.015;entryDx=0;entryDy=0;entryPerimeter=0;curved=1;" edge="1" parent="1" source="a0Pq5C3tPMiAY6oz2Tuq-15" target="a0Pq5C3tPMiAY6oz2Tuq-14">
          <mxGeometry relative="1" as="geometry">
            <mxPoint x="349.79999999999995" y="356" as="targetPoint" />
            <Array as="points" />
          </mxGeometry>
        </mxCell>
        <mxCell id="a0Pq5C3tPMiAY6oz2Tuq-92" value="*" style="edgeLabel;html=1;align=center;verticalAlign=middle;resizable=0;points=[];" vertex="1" connectable="0" parent="a0Pq5C3tPMiAY6oz2Tuq-71">
          <mxGeometry x="-0.9387" y="-2" relative="1" as="geometry">
            <mxPoint as="offset" />
          </mxGeometry>
        </mxCell>
        <mxCell id="a0Pq5C3tPMiAY6oz2Tuq-93" value="*" style="edgeLabel;html=1;align=center;verticalAlign=middle;resizable=0;points=[];" vertex="1" connectable="0" parent="a0Pq5C3tPMiAY6oz2Tuq-71">
          <mxGeometry x="0.9265" relative="1" as="geometry">
            <mxPoint as="offset" />
          </mxGeometry>
        </mxCell>
        <mxCell id="a0Pq5C3tPMiAY6oz2Tuq-15" value="Tag" style="swimlane;fontStyle=0;childLayout=stackLayout;horizontal=1;startSize=26;fillColor=none;horizontalStack=0;resizeParent=1;resizeParentMax=0;resizeLast=0;collapsible=1;marginBottom=0;whiteSpace=wrap;html=1;" vertex="1" parent="1">
          <mxGeometry x="200" y="630" width="140" height="52" as="geometry" />
        </mxCell>
        <mxCell id="a0Pq5C3tPMiAY6oz2Tuq-16" value="name : string" style="text;strokeColor=none;fillColor=none;align=left;verticalAlign=top;spacingLeft=4;spacingRight=4;overflow=hidden;rotatable=0;points=[[0,0.5],[1,0.5]];portConstraint=eastwest;whiteSpace=wrap;html=1;" vertex="1" parent="a0Pq5C3tPMiAY6oz2Tuq-15">
          <mxGeometry y="26" width="140" height="26" as="geometry" />
        </mxCell>
        <mxCell id="a0Pq5C3tPMiAY6oz2Tuq-19" value="Status" style="swimlane;fontStyle=0;childLayout=stackLayout;horizontal=1;startSize=26;fillColor=none;horizontalStack=0;resizeParent=1;resizeParentMax=0;resizeLast=0;collapsible=1;marginBottom=0;whiteSpace=wrap;html=1;" vertex="1" parent="1">
          <mxGeometry x="240" y="380" width="140" height="52" as="geometry" />
        </mxCell>
        <mxCell id="a0Pq5C3tPMiAY6oz2Tuq-20" value="name : string" style="text;strokeColor=none;fillColor=none;align=left;verticalAlign=top;spacingLeft=4;spacingRight=4;overflow=hidden;rotatable=0;points=[[0,0.5],[1,0.5]];portConstraint=eastwest;whiteSpace=wrap;html=1;" vertex="1" parent="a0Pq5C3tPMiAY6oz2Tuq-19">
          <mxGeometry y="26" width="140" height="26" as="geometry" />
        </mxCell>
        <mxCell id="a0Pq5C3tPMiAY6oz2Tuq-83" style="edgeStyle=orthogonalEdgeStyle;rounded=0;orthogonalLoop=1;jettySize=auto;html=1;exitX=0;exitY=0.25;exitDx=0;exitDy=0;endArrow=none;endFill=0;entryX=1;entryY=0.129;entryDx=0;entryDy=0;entryPerimeter=0;" edge="1" parent="1" source="a0Pq5C3tPMiAY6oz2Tuq-21" target="a0Pq5C3tPMiAY6oz2Tuq-1">
          <mxGeometry relative="1" as="geometry">
            <mxPoint x="220" y="70" as="targetPoint" />
          </mxGeometry>
        </mxCell>
        <mxCell id="a0Pq5C3tPMiAY6oz2Tuq-84" value="&amp;nbsp;1&amp;nbsp; " style="edgeLabel;html=1;align=center;verticalAlign=middle;resizable=0;points=[];" vertex="1" connectable="0" parent="a0Pq5C3tPMiAY6oz2Tuq-83">
          <mxGeometry x="0.6959" relative="1" as="geometry">
            <mxPoint as="offset" />
          </mxGeometry>
        </mxCell>
        <mxCell id="a0Pq5C3tPMiAY6oz2Tuq-85" value="&amp;nbsp;*&amp;nbsp; " style="edgeLabel;html=1;align=center;verticalAlign=middle;resizable=0;points=[];" vertex="1" connectable="0" parent="a0Pq5C3tPMiAY6oz2Tuq-83">
          <mxGeometry x="-0.7519" y="1" relative="1" as="geometry">
            <mxPoint x="-1" as="offset" />
          </mxGeometry>
        </mxCell>
        <mxCell id="a0Pq5C3tPMiAY6oz2Tuq-21" value="TimeSlot" style="swimlane;fontStyle=0;childLayout=stackLayout;horizontal=1;startSize=26;fillColor=none;horizontalStack=0;resizeParent=1;resizeParentMax=0;resizeLast=0;collapsible=1;marginBottom=0;whiteSpace=wrap;html=1;" vertex="1" parent="1">
          <mxGeometry x="450" y="50" width="140" height="78" as="geometry" />
        </mxCell>
        <mxCell id="a0Pq5C3tPMiAY6oz2Tuq-22" value="start_date : date" style="text;strokeColor=none;fillColor=none;align=left;verticalAlign=top;spacingLeft=4;spacingRight=4;overflow=hidden;rotatable=0;points=[[0,0.5],[1,0.5]];portConstraint=eastwest;whiteSpace=wrap;html=1;" vertex="1" parent="a0Pq5C3tPMiAY6oz2Tuq-21">
          <mxGeometry y="26" width="140" height="26" as="geometry" />
        </mxCell>
        <mxCell id="a0Pq5C3tPMiAY6oz2Tuq-23" value="end_date : date" style="text;strokeColor=none;fillColor=none;align=left;verticalAlign=top;spacingLeft=4;spacingRight=4;overflow=hidden;rotatable=0;points=[[0,0.5],[1,0.5]];portConstraint=eastwest;whiteSpace=wrap;html=1;" vertex="1" parent="a0Pq5C3tPMiAY6oz2Tuq-21">
          <mxGeometry y="52" width="140" height="26" as="geometry" />
        </mxCell>
        <mxCell id="a0Pq5C3tPMiAY6oz2Tuq-44" value="" style="endArrow=none;html=1;edgeStyle=orthogonalEdgeStyle;rounded=0;exitX=-0.01;exitY=0.369;exitDx=0;exitDy=0;exitPerimeter=0;entryX=0.298;entryY=1.007;entryDx=0;entryDy=0;entryPerimeter=0;movable=1;resizable=1;rotatable=1;deletable=1;editable=1;locked=0;connectable=1;" edge="1" parent="1" source="a0Pq5C3tPMiAY6oz2Tuq-15" target="a0Pq5C3tPMiAY6oz2Tuq-8">
          <mxGeometry relative="1" as="geometry">
            <mxPoint x="-20" y="486" as="sourcePoint" />
            <mxPoint x="30" y="326" as="targetPoint" />
            <Array as="points">
              <mxPoint x="112" y="649" />
            </Array>
          </mxGeometry>
        </mxCell>
        <mxCell id="a0Pq5C3tPMiAY6oz2Tuq-45" value="*" style="edgeLabel;resizable=0;html=1;align=left;verticalAlign=bottom;" connectable="0" vertex="1" parent="a0Pq5C3tPMiAY6oz2Tuq-44">
          <mxGeometry x="-1" relative="1" as="geometry">
            <mxPoint x="-9" as="offset" />
          </mxGeometry>
        </mxCell>
        <mxCell id="a0Pq5C3tPMiAY6oz2Tuq-94" value="*" style="edgeLabel;html=1;align=center;verticalAlign=middle;resizable=0;points=[];" vertex="1" connectable="0" parent="a0Pq5C3tPMiAY6oz2Tuq-44">
          <mxGeometry x="0.9093" y="11" relative="1" as="geometry">
            <mxPoint as="offset" />
          </mxGeometry>
        </mxCell>
        <mxCell id="a0Pq5C3tPMiAY6oz2Tuq-50" value="" style="endArrow=none;html=1;edgeStyle=orthogonalEdgeStyle;rounded=0;entryX=-0.009;entryY=0.102;entryDx=0;entryDy=0;entryPerimeter=0;exitX=1.002;exitY=0.066;exitDx=0;exitDy=0;exitPerimeter=0;" edge="1" parent="1" target="a0Pq5C3tPMiAY6oz2Tuq-11">
          <mxGeometry relative="1" as="geometry">
            <mxPoint x="210" y="256" as="sourcePoint" />
            <mxPoint x="300" y="256" as="targetPoint" />
          </mxGeometry>
        </mxCell>
        <mxCell id="a0Pq5C3tPMiAY6oz2Tuq-87" value="&amp;nbsp;*&amp;nbsp; " style="edgeLabel;html=1;align=center;verticalAlign=middle;resizable=0;points=[];" vertex="1" connectable="0" parent="a0Pq5C3tPMiAY6oz2Tuq-50">
          <mxGeometry x="0.8097" relative="1" as="geometry">
            <mxPoint as="offset" />
          </mxGeometry>
        </mxCell>
        <mxCell id="a0Pq5C3tPMiAY6oz2Tuq-88" value="&lt;div&gt;&amp;nbsp;1&amp;nbsp; &lt;br&gt;&lt;/div&gt;" style="edgeLabel;html=1;align=center;verticalAlign=middle;resizable=0;points=[];" vertex="1" connectable="0" parent="a0Pq5C3tPMiAY6oz2Tuq-50">
          <mxGeometry x="-0.6896" relative="1" as="geometry">
            <mxPoint as="offset" />
          </mxGeometry>
        </mxCell>
        <mxCell id="a0Pq5C3tPMiAY6oz2Tuq-56" value="" style="endArrow=none;html=1;edgeStyle=orthogonalEdgeStyle;rounded=0;entryX=1;entryY=0.5;entryDx=0;entryDy=0;exitX=0.39;exitY=-0.015;exitDx=0;exitDy=0;exitPerimeter=0;" edge="1" parent="1" source="a0Pq5C3tPMiAY6oz2Tuq-19" target="a0Pq5C3tPMiAY6oz2Tuq-6">
          <mxGeometry relative="1" as="geometry">
            <mxPoint x="140" y="466" as="sourcePoint" />
            <mxPoint x="220" y="437" as="targetPoint" />
          </mxGeometry>
        </mxCell>
        <mxCell id="a0Pq5C3tPMiAY6oz2Tuq-57" value="*" style="edgeLabel;resizable=0;html=1;align=left;verticalAlign=bottom;" connectable="0" vertex="1" parent="a0Pq5C3tPMiAY6oz2Tuq-56">
          <mxGeometry x="-1" relative="1" as="geometry">
            <mxPoint x="5" as="offset" />
          </mxGeometry>
        </mxCell>
        <mxCell id="a0Pq5C3tPMiAY6oz2Tuq-59" value="1" style="edgeLabel;html=1;align=center;verticalAlign=middle;resizable=0;points=[];" vertex="1" connectable="0" parent="a0Pq5C3tPMiAY6oz2Tuq-56">
          <mxGeometry x="0.7722" y="-1" relative="1" as="geometry">
            <mxPoint x="6" as="offset" />
          </mxGeometry>
        </mxCell>
        <mxCell id="a0Pq5C3tPMiAY6oz2Tuq-74" style="edgeStyle=orthogonalEdgeStyle;rounded=0;orthogonalLoop=1;jettySize=auto;html=1;exitX=0.5;exitY=0;exitDx=0;exitDy=0;endArrow=none;endFill=0;curved=1;entryX=0.485;entryY=1.003;entryDx=0;entryDy=0;entryPerimeter=0;" edge="1" parent="1" source="a0Pq5C3tPMiAY6oz2Tuq-5" target="a0Pq5C3tPMiAY6oz2Tuq-2">
          <mxGeometry relative="1" as="geometry">
            <mxPoint x="139.76" y="210" as="targetPoint" />
            <mxPoint x="359.76" y="426" as="sourcePoint" />
            <Array as="points" />
          </mxGeometry>
        </mxCell>
        <mxCell id="a0Pq5C3tPMiAY6oz2Tuq-75" value="*" style="text;html=1;align=center;verticalAlign=middle;resizable=0;points=[];autosize=1;strokeColor=none;fillColor=none;" vertex="1" parent="1">
          <mxGeometry x="135" y="200" width="30" height="30" as="geometry" />
        </mxCell>
        <mxCell id="a0Pq5C3tPMiAY6oz2Tuq-77" value="*" style="text;html=1;align=center;verticalAlign=middle;resizable=0;points=[];autosize=1;strokeColor=none;fillColor=none;" vertex="1" parent="1">
          <mxGeometry x="135" y="220" width="30" height="30" as="geometry" />
        </mxCell>
        <mxCell id="a0Pq5C3tPMiAY6oz2Tuq-78" value="" style="endArrow=none;html=1;edgeStyle=orthogonalEdgeStyle;rounded=0;exitX=0.5;exitY=0;exitDx=0;exitDy=0;" edge="1" parent="1" source="a0Pq5C3tPMiAY6oz2Tuq-11" target="a0Pq5C3tPMiAY6oz2Tuq-1">
          <mxGeometry relative="1" as="geometry">
            <mxPoint x="409.76" y="219.48000000000002" as="sourcePoint" />
            <mxPoint x="279.76" y="70" as="targetPoint" />
            <Array as="points">
              <mxPoint x="380" y="100" />
            </Array>
          </mxGeometry>
        </mxCell>
        <mxCell id="a0Pq5C3tPMiAY6oz2Tuq-81" value="1" style="edgeLabel;html=1;align=center;verticalAlign=middle;resizable=0;points=[];" vertex="1" connectable="0" parent="a0Pq5C3tPMiAY6oz2Tuq-78">
          <mxGeometry x="0.7722" y="-1" relative="1" as="geometry">
            <mxPoint x="7" as="offset" />
          </mxGeometry>
        </mxCell>
        <mxCell id="a0Pq5C3tPMiAY6oz2Tuq-82" value="0..1" style="edgeLabel;html=1;align=center;verticalAlign=middle;resizable=0;points=[];" vertex="1" connectable="0" parent="a0Pq5C3tPMiAY6oz2Tuq-78">
          <mxGeometry x="0.7089" relative="1" as="geometry">
            <mxPoint as="offset" />
          </mxGeometry>
        </mxCell>
        <mxCell id="a0Pq5C3tPMiAY6oz2Tuq-86" value="*" style="edgeLabel;html=1;align=center;verticalAlign=middle;resizable=0;points=[];" vertex="1" connectable="0" parent="a0Pq5C3tPMiAY6oz2Tuq-78">
          <mxGeometry x="-0.9008" y="-1" relative="1" as="geometry">
            <mxPoint as="offset" />
          </mxGeometry>
        </mxCell>
        <mxCell id="a0Pq5C3tPMiAY6oz2Tuq-89" value="" style="endArrow=none;startArrow=none;endFill=0;startFill=0;html=1;rounded=0;entryX=0.526;entryY=1.032;entryDx=0;entryDy=0;entryPerimeter=0;exitX=0.677;exitY=-0.01;exitDx=0;exitDy=0;exitPerimeter=0;" edge="1" parent="1" source="a0Pq5C3tPMiAY6oz2Tuq-11" target="a0Pq5C3tPMiAY6oz2Tuq-23">
          <mxGeometry width="160" relative="1" as="geometry">
            <mxPoint x="480" y="290" as="sourcePoint" />
            <mxPoint x="610" y="260" as="targetPoint" />
            <Array as="points">
              <mxPoint x="524" y="210" />
            </Array>
          </mxGeometry>
        </mxCell>
        <mxCell id="a0Pq5C3tPMiAY6oz2Tuq-90" value="&amp;nbsp;1&amp;nbsp; " style="edgeLabel;html=1;align=center;verticalAlign=middle;resizable=0;points=[];" vertex="1" connectable="0" parent="a0Pq5C3tPMiAY6oz2Tuq-89">
          <mxGeometry x="-0.8343" relative="1" as="geometry">
            <mxPoint y="1" as="offset" />
          </mxGeometry>
        </mxCell>
        <mxCell id="a0Pq5C3tPMiAY6oz2Tuq-91" value="*" style="edgeLabel;html=1;align=center;verticalAlign=middle;resizable=0;points=[];" vertex="1" connectable="0" parent="a0Pq5C3tPMiAY6oz2Tuq-89">
          <mxGeometry x="0.8537" y="-1" relative="1" as="geometry">
            <mxPoint as="offset" />
          </mxGeometry>
        </mxCell>
        <mxCell id="a0Pq5C3tPMiAY6oz2Tuq-95" value="" style="endArrow=none;startArrow=none;endFill=0;startFill=0;html=1;rounded=0;exitX=0.617;exitY=0.021;exitDx=0;exitDy=0;exitPerimeter=0;entryX=0;entryY=0.5;entryDx=0;entryDy=0;edgeStyle=orthogonalEdgeStyle;" edge="1" parent="1" source="a0Pq5C3tPMiAY6oz2Tuq-19" target="a0Pq5C3tPMiAY6oz2Tuq-12">
          <mxGeometry width="160" relative="1" as="geometry">
            <mxPoint x="340" y="310" as="sourcePoint" />
            <mxPoint x="500" y="310" as="targetPoint" />
          </mxGeometry>
        </mxCell>
        <mxCell id="a0Pq5C3tPMiAY6oz2Tuq-97" value="1" style="edgeLabel;html=1;align=center;verticalAlign=middle;resizable=0;points=[];" vertex="1" connectable="0" parent="a0Pq5C3tPMiAY6oz2Tuq-95">
          <mxGeometry x="-0.7803" y="-1" relative="1" as="geometry">
            <mxPoint as="offset" />
          </mxGeometry>
        </mxCell>
        <mxCell id="a0Pq5C3tPMiAY6oz2Tuq-98" value="&amp;nbsp;*&amp;nbsp; " style="edgeLabel;html=1;align=center;verticalAlign=middle;resizable=0;points=[];" vertex="1" connectable="0" parent="a0Pq5C3tPMiAY6oz2Tuq-95">
          <mxGeometry x="0.8115" y="-3" relative="1" as="geometry">
            <mxPoint as="offset" />
          </mxGeometry>
        </mxCell>
      </root>
    </mxGraphModel>
  </diagram>
</mxfile>
